<svg  viewBox="0 0 16 16" fill="#000" xmlns="http://www.w3.org/2000/svg" className="w-8 h-8 mt-1 mr-3">
    <path d="M3.04543 3.35267C3.64714 2.58269 4.84733 2 7.49992 2C10.1525 2 11.3527 2.58269 11.9545 3.35269C12.5387 
                            4.10025 12.7192 5.20281 12.7462 6.78447C11.5309 6.78398 10.5 7.77127 10.5 9.03507V10.7145C10.5 11.7002 11.1271
                            12.5176 11.9797 12.8295C11.9453 13.0818 11.8715 13.237 11.7907 13.3412C11.6775 13.4872 11.474 13.6321 11.068 
                            13.7472C10.6559 13.8639 10.1016 13.9313 9.36527 13.9657C8.63365 13.9998 7.77052 14 6.75 14C6.33579 14 6 14.3358 6 14.75C6 
                            15.1642 6.33579 15.5 6.75 15.5H6.76448C7.76804 15.5 8.66495 15.5 9.43524 15.464C10.2045 15.4281 10.8965 15.3548 11.4769 
                            15.1903C12.0635 15.0241 12.5986 14.7472 12.9761 14.2603C13.2898 13.8558 13.4429 13.3731 13.4865 12.8407C14.3799 12.5319 15 
                            11.6856 15 10.7145V9.03507C15 8.37201 14.7109 7.76714 14.2431 7.35181C14.2477 7.31852 14.25 7.28453 14.25 7.25C14.25 5.45936 
                            14.1329 3.70412 13.1364 2.42904C12.1018 1.10512 10.302 0.5 7.49992 0.5C4.69789 0.5 2.89812 1.10512 1.86352 2.42905C0.867094 
                            3.70413 0.75 5.45938 0.75 7.25C0.75 7.28467 0.752352 7.31879 0.756905 7.3522C0.289095 7.76754 0 8.37243 0 9.03552V10.7149C0 
                            11.8079 0.785502 12.7428 1.86214 12.9312C3.23897 13.1722 4.5 12.1127 4.5 10.7149V9.03552C4.5 7.77171 3.46906 6.78442 2.25374 
                            6.78491C2.28071 5.203 2.46119 4.1003 3.04543 3.35267ZM3 9.03552V10.7149C3 11.1808 2.57966 11.534 2.12071 11.4537C1.76183 
                            11.3909 1.5 11.0793 1.5 10.7149V9.03552C1.5 8.67118 1.76183 8.35955 2.12071 8.29675C2.57966 8.21643 3 8.5696 3 9.03552ZM12.8793
                            11.4533C12.4203 11.5336 12 11.1804 12 10.7145V9.03507C12 8.56916 12.4203 8.21599 12.8793 8.2963C13.2382 8.3591 13.5 8.67074 
                            13.5 9.03507V10.7145C13.5 11.0788 13.2382 11.3904 12.8793 11.4533Z" fill="#000">
                                </path>
                        </svg>